<?xml version="1.0" encoding="utf-8"?>
<!-- Generator: Adobe Illustrator 18.0.0, SVG Export Plug-In . SVG Version: 6.00 Build 0)  -->
<!DOCTYPE svg PUBLIC "-//W3C//DTD SVG 1.1//EN" "http://www.w3.org/Graphics/SVG/1.1/DTD/svg11.dtd">
<svg version="1.1" id="Layer_1" xmlns="http://www.w3.org/2000/svg" xmlns:xlink="http://www.w3.org/1999/xlink" x="0px" y="0px"
	 viewBox="0 0 219 42" enable-background="new 0 0 219 42" xml:space="preserve">
<g>
	<g>
		<path fill="#FFFFFF" d="M22,6.8l-5.9,5.9v23.4c-5.1-0.8-8.7-2.6-8.7-4.7c0-1.7,2.3-3.2,5.9-4.1c-7.7,1.2-13.1,3.9-13.1,7
			c0,4.2,9.7,7.6,21.8,7.7V6.8z"/>
		<path fill="#FFFFFF" d="M31.5,27.3c3.6,0.9,5.9,2.4,5.9,4.1c0,2.1-3.5,3.9-8.7,4.7V0l-5.9,5.9V42c12.1-0.1,21.8-3.5,21.8-7.7
			C44.6,31.2,39.2,28.5,31.5,27.3z"/>
	</g>
	<g>
		<path fill="#FFFFFF" d="M61.6,14H67c4.4,0,7.4,3,7.4,7v0c0,3.9-3,7-7.4,7h-5.5V14z M64.6,16.8v8.4H67c2.5,0,4.2-1.7,4.2-4.2v0
			c0-2.5-1.7-4.2-4.2-4.2L64.6,16.8L64.6,16.8z"/>
		<path fill="#FFFFFF" d="M80.6,13.9h2.8l6,14.1h-3.2l-1.3-3.1H79l-1.3,3.1h-3.1L80.6,13.9z M83.8,22.2L82,17.6l-1.9,4.5H83.8z"/>
		<path fill="#FFFFFF" d="M91.2,14H94l6.6,8.6V14h3v14H101l-6.8-8.9v8.9h-3V14z"/>
		<path fill="#FFFFFF" d="M106.7,14h3.1v14h-3.1V14z"/>
		<path fill="#FFFFFF" d="M112.9,14h10.6v2.7H116v2.8h6.6v2.7H116v2.9h7.6v2.7h-10.7L112.9,14L112.9,14z"/>
		<path fill="#FFFFFF" d="M126.3,14h3.1v11.2h7v2.8h-10.1L126.3,14L126.3,14z"/>
		<path fill="#FFFFFF" d="M139.1,14h5.8c1.6,0,2.9,0.5,3.6,1.2c0.6,0.6,0.9,1.3,0.9,2.2v0c0,1.9-1.2,2.9-2.4,3.3
			c1.7,0.4,3.2,1.4,3.2,3.3v0c0,2.3-2,3.8-5,3.8h-6.1L139.1,14L139.1,14z M148.4,17.6c0-1.5-1.3-2.6-3.5-2.6h-4.7v5.5h4.6
			C146.9,20.5,148.4,19.5,148.4,17.6L148.4,17.6z M144.9,21.5h-4.7v5.6h5.1c2.4,0,3.9-1.1,3.9-2.9v0
			C149.1,22.5,147.6,21.5,144.9,21.5z"/>
		<path fill="#FFFFFF" d="M153.1,14h10v1h-8.9v5.5h8v1h-8v5.6h9v1h-10.1V14z"/>
		<path fill="#FFFFFF" d="M171.9,13.9h1l6.5,14.1h-1.1l-1.8-3.9h-8.3l-1.8,3.9h-1.1L171.9,13.9z M176,23.2l-3.7-8.1l-3.7,8.1H176z"
			/>
		<path fill="#FFFFFF" d="M181.9,14h4.7c4.4,0,7.4,3,7.4,7v0c0,3.9-3,7-7.4,7h-4.7V14z M183,15v12.1h3.6c3.9,0,6.4-2.7,6.4-6v0
			c0-3.3-2.5-6-6.4-6C186.6,15,183,15,183,15z"/>
		<path fill="#FFFFFF" d="M196.8,14h1v13h8.2v1h-9.3V14z"/>
		<path fill="#FFFFFF" d="M208.8,14h10v1h-8.9v5.5h8v1h-8v5.6h9v1h-10.1V14z"/>
	</g>
</g>
</svg>
