<?xml version="1.0" encoding="utf-8"?>
<!-- Generator: Adobe Illustrator 16.0.4, SVG Export Plug-In . SVG Version: 6.00 Build 0)  -->
<!DOCTYPE svg PUBLIC "-//W3C//DTD SVG 1.1//EN" "http://www.w3.org/Graphics/SVG/1.1/DTD/svg11.dtd">
<svg version="1.1" id="Layer_1" xmlns="http://www.w3.org/2000/svg" xmlns:xlink="http://www.w3.org/1999/xlink" x="0px" y="0px"
	 width="34px" height="34px" viewBox="0 0 34 34" enable-background="new 0 0 34 34" xml:space="preserve">
<path fill="#FFFFFF" d="M17,0C7.611,0,0,7.611,0,17s7.611,17,17,17s17-7.611,17-17S26.389,0,17,0z M23.189,10.637l-0.188,0.357
	l-3.479,6.646l0.299,0.365h3.367V23h-6.125l-0.539,0.364l-1.715,3.27L14.447,27h-3.635h-0.001v-3.637l0.188-0.357l3.479-6.65
	l-0.3-0.362h-3.367V11h6.125l0.539-0.364l1.716-3.27L19.553,7h3.637V10.637z"/>
</svg>
