<?xml version="1.0" encoding="utf-8"?>
<!-- Generator: Adobe Illustrator 16.0.4, SVG Export Plug-In . SVG Version: 6.00 Build 0)  -->
<!DOCTYPE svg PUBLIC "-//W3C//DTD SVG 1.1//EN" "http://www.w3.org/Graphics/SVG/1.1/DTD/svg11.dtd">
<svg version="1.1" id="Layer_1" xmlns="http://www.w3.org/2000/svg" xmlns:xlink="http://www.w3.org/1999/xlink" x="0px" y="0px"
	 width="34px" height="34px" viewBox="0 0 34 34" enable-background="new 0 0 34 34" xml:space="preserve">
<g>
	<path fill="#FFFFFF" d="M13.23,17.586H9.391v3.523h3.4c0.057,0,0.143,0.002,0.245,0c0.546-0.012,1.584-0.17,1.584-1.713
		C14.62,17.566,13.23,17.586,13.23,17.586z"/>
	<path fill="#FFFFFF" d="M23.059,15.553c-2.037,0-2.322,2.033-2.322,2.033h4.332C25.068,17.586,25.096,15.553,23.059,15.553z"/>
	<path fill="#FFFFFF" d="M14.163,13.982c0-1.371-0.933-1.371-0.933-1.371h-0.494H9.391v2.943h3.602
		C13.614,15.554,14.163,15.355,14.163,13.982z"/>
	<path fill="#FFFFFF" d="M17,0C7.611,0,0,7.611,0,17s7.611,17,17,17s17-7.611,17-17S26.389,0,17,0z M20.17,11.043h5.439v1.624H20.17
		V11.043z M17.418,19.562c0,4.025-4.188,3.893-4.188,3.893H9.391H9.278H6.367V10.267h2.911h0.113h3.839
		c2.086,0,3.732,1.152,3.732,3.511c0,2.361-2.013,2.51-2.013,2.51C17.602,16.288,17.418,19.562,17.418,19.562z M27.598,19.346
		h-6.832c0,2.45,2.32,2.295,2.32,2.295c2.189,0,2.113-1.418,2.113-1.418h2.32c0,3.766-4.512,3.508-4.512,3.508
		c-5.416,0-5.068-5.041-5.068-5.041s-0.004-5.067,5.068-5.067C28.346,13.622,27.598,19.346,27.598,19.346z"/>
</g>
</svg>
