<?xml version="1.0" encoding="utf-8"?>
<!-- Generator: Adobe Illustrator 16.0.4, SVG Export Plug-In . SVG Version: 6.00 Build 0)  -->
<!DOCTYPE svg PUBLIC "-//W3C//DTD SVG 1.1//EN" "http://www.w3.org/Graphics/SVG/1.1/DTD/svg11.dtd">
<svg version="1.1" id="Layer_1" xmlns="http://www.w3.org/2000/svg" xmlns:xlink="http://www.w3.org/1999/xlink" x="0px" y="0px"
	 width="34px" height="34px" viewBox="0 0 34 34" enable-background="new 0 0 34 34" xml:space="preserve">
<path fill="#FFFFFF" d="M17,0C7.611,0,0,7.611,0,17s7.611,17,17,17s17-7.611,17-17S26.389,0,17,0z M21.283,17.006h-2.801
	c0,4.479,0,9.994,0,9.994h-4.155c0,0,0-5.459,0-9.994h-1.976v-3.529h1.976v-2.285C14.327,9.555,15.104,7,18.52,7l3.076,0.012v3.428
	c0,0-1.871,0-2.234,0c-0.362,0-0.879,0.182-0.879,0.959v2.078h3.166L21.283,17.006z"/>
</svg>
