<?xml version="1.0" encoding="utf-8"?>
<!-- Generator: Adobe Illustrator 16.0.4, SVG Export Plug-In . SVG Version: 6.00 Build 0)  -->
<!DOCTYPE svg PUBLIC "-//W3C//DTD SVG 1.1//EN" "http://www.w3.org/Graphics/SVG/1.1/DTD/svg11.dtd">
<svg version="1.1" id="Layer_1" xmlns="http://www.w3.org/2000/svg" xmlns:xlink="http://www.w3.org/1999/xlink" x="0px" y="0px"
	 width="34px" height="34px" viewBox="0 0 34 34" enable-background="new 0 0 34 34" xml:space="preserve">
<path fill="#FFFFFF" d="M17,0C7.611,0,0,7.611,0,17s7.611,17,17,17s17-7.611,17-17S26.389,0,17,0z M12.573,23.749H9.097V13.291
	h3.476V23.749z M10.835,11.862h-0.023c-1.166,0-1.92-0.803-1.92-1.807c0-1.026,0.778-1.807,1.966-1.807s1.921,0.781,1.944,1.807
	C12.803,11.059,12.047,11.862,10.835,11.862z M21.632,23.749v-5.595c0-1.407-0.503-2.366-1.762-2.366
	c-0.96,0-1.531,0.647-1.784,1.272c-0.092,0.224-0.113,0.536-0.113,0.849v5.84h-3.477c0,0,0.045-9.478,0-10.458h3.477v1.479
	c0.461-0.712,1.288-1.727,3.133-1.727c2.287,0,4,1.496,4,4.708v5.998H21.632z"/>
</svg>
