<?xml version="1.0" encoding="utf-8"?>
<!-- Generator: Adobe Illustrator 16.0.4, SVG Export Plug-In . SVG Version: 6.00 Build 0)  -->
<!DOCTYPE svg PUBLIC "-//W3C//DTD SVG 1.1//EN" "http://www.w3.org/Graphics/SVG/1.1/DTD/svg11.dtd">
<svg version="1.1" id="Layer_1" xmlns="http://www.w3.org/2000/svg" xmlns:xlink="http://www.w3.org/1999/xlink" x="0px" y="0px"
	 width="34px" height="34px" viewBox="0 0 34 34" enable-background="new 0 0 34 34" xml:space="preserve">
<path fill="#FFFFFF" d="M17,0C7.611,0,0,7.611,0,17s7.611,17,17,17s17-7.611,17-17S26.389,0,17,0z M24.807,12.996
	c0.01,0.174,0.01,0.347,0.01,0.521c0,5.323-4.051,11.459-11.458,11.459c-2.274,0-4.391-0.666-6.173-1.81
	c0.314,0.035,0.635,0.056,0.96,0.056c1.887,0,3.624-0.644,5.003-1.725c-1.763-0.033-3.25-1.197-3.762-2.798
	c0.246,0.048,0.497,0.071,0.758,0.071c0.368,0,0.723-0.049,1.062-0.141c-1.843-0.369-3.233-1.998-3.233-3.948
	c0-0.019,0-0.035,0.001-0.052c0.542,0.301,1.164,0.483,1.824,0.505c-1.081-0.723-1.792-1.956-1.792-3.353
	c0-0.738,0.198-1.432,0.545-2.026c1.987,2.438,4.954,4.04,8.301,4.208c-0.067-0.295-0.103-0.603-0.103-0.918
	c0-2.224,1.803-4.027,4.027-4.027c1.156,0,2.205,0.489,2.938,1.271c0.917-0.18,1.78-0.516,2.558-0.977
	c-0.301,0.941-0.938,1.73-1.771,2.228c0.816-0.098,1.594-0.314,2.314-0.634C26.277,11.718,25.593,12.428,24.807,12.996z"/>
</svg>
